<svg xmlns="http://www.w3.org/2000/svg" viewBox="0 0 100 100">
  <defs>
    <linearGradient id="brainGrad" x1="0%" y1="0%" x2="100%" y2="100%">
      <stop offset="0%" style="stop-color:#6366f1"/>
      <stop offset="100%" style="stop-color:#8b5cf6"/>
    </linearGradient>
    <filter id="glow">
      <feGaussianBlur stdDeviation="2" result="coloredBlur"/>
      <feMerge>
        <feMergeNode in="coloredBlur"/>
        <feMergeNode in="SourceGraphic"/>
      </feMerge>
    </filter>
  </defs>
  <circle cx="50" cy="50" r="45" fill="url(#brainGrad)" filter="url(#glow)"/>
  <g transform="translate(20, 25)" fill="white">
    <path d="M30 0 C15 0, 5 10, 5 25 C5 35, 10 42, 20 45 C15 48, 10 52, 10 58 C10 65, 17 70, 25 70 L35 70 C43 70, 50 65, 50 58 C50 52, 45 48, 40 45 C50 42, 55 35, 55 25 C55 10, 45 0, 30 0 M25 12 C20 12, 16 18, 16 25 C16 32, 20 38, 25 38 M35 12 C40 12, 44 18, 44 25 C44 32, 40 38, 35 38 M30 40 L30 55"/>
  </g>
</svg>
